<?xml version="1.0" encoding="UTF-8"?>
<svg xmlns="http://www.w3.org/2000/svg" viewBox="-170 -170 340 340"><g transform="translate(0 92.23)" data-layer="figure"><g data-layer="body"><path d="M 0.00 -93.80 C 5.01 -93.80, 10.11 -75.33, 15.02 -68.78 C 19.93 -62.23, 24.84 -57.74, 29.47 -54.49 C 34.09 -51.24, 38.62 -51.31, 42.78 -49.28 C 46.94 -47.24, 50.91 -44.86, 54.45 -42.28 C 57.99 -39.70, 61.24 -36.81, 64.02 -33.79 C 66.81 -30.77, 69.22 -27.49, 71.14 -24.15 C 73.05 -20.80, 74.54 -17.27, 75.52 -13.74 C 76.50 -10.21, 77.00 -5.78, 77.00 -2.97 C 77.00 -0.17, 76.50 1.12, 75.52 3.10 C 74.54 5.07, 73.05 7.03, 71.14 8.88 C 69.22 10.73, 66.81 12.52, 64.02 14.17 C 61.24 15.82, 57.99 17.38, 54.45 18.78 C 50.91 20.18, 46.94 21.46, 42.78 22.55 C 38.62 23.65, 34.09 24.60, 29.47 25.36 C 24.84 26.12, 19.93 26.72, 15.02 27.12 C 10.11 27.52, 5.01 27.77, 0.00 27.77 C -5.01 27.77, -10.11 27.52, -15.02 27.12 C -19.93 26.72, -24.84 26.12, -29.47 25.36 C -34.09 24.60, -38.62 23.65, -42.78 22.55 C -46.94 21.46, -50.91 20.18, -54.45 18.78 C -57.99 17.38, -61.24 15.82, -64.02 14.17 C -66.81 12.52, -69.22 10.73, -71.14 8.88 C -73.05 7.03, -74.54 5.07, -75.52 3.10 C -76.50 1.12, -77.00 -0.17, -77.00 -2.97 C -77.00 -5.78, -76.50 -10.21, -75.52 -13.74 C -74.54 -17.27, -73.05 -20.80, -71.14 -24.15 C -69.22 -27.49, -66.81 -30.77, -64.02 -33.79 C -61.24 -36.81, -57.99 -39.70, -54.45 -42.28 C -50.91 -44.86, -46.94 -47.24, -42.78 -49.28 C -38.62 -51.31, -34.09 -51.24, -29.47 -54.49 C -24.84 -57.74, -19.93 -62.23, -15.02 -68.78 C -10.11 -75.33, -5.01 -93.80, 0.00 -93.80 Z" fill="oklch(60% 35% 80)" stroke="oklch(51.0% 35% 80)" stroke-width="8"></path></g><g data-layer="eyes"><ellipse cx="-17.50" cy="-24.50" rx="10.50" ry="13.30" fill="#fff" stroke="#2a2a2a" stroke-width="1.5"></ellipse><ellipse cx="-17.50" cy="-24.50" rx="2.10" ry="10.50" fill="#1a1a1a"></ellipse><circle cx="-21.18" cy="-30.48" r="2.10" fill="#fff"></circle><ellipse cx="17.50" cy="-24.50" rx="10.50" ry="13.30" fill="#fff" stroke="#2a2a2a" stroke-width="1.5"></ellipse><ellipse cx="17.50" cy="-24.50" rx="2.10" ry="10.50" fill="#1a1a1a"></ellipse><circle cx="13.82" cy="-30.48" r="2.10" fill="#fff"></circle></g></g></svg>
