<?xml version="1.0" encoding="UTF-8"?>
<svg xmlns="http://www.w3.org/2000/svg" viewBox="-170 -170 340 340"><defs><radialGradient id="g-blue-balloon" cx="50%" cy="42%" r="62%"><stop offset="0%" stop-color="oklch(70% 55% 200)" stop-opacity="0.850"></stop><stop offset="100%" stop-color="oklch(70% 55% 200)" stop-opacity="0.297"></stop></radialGradient></defs><g transform="translate(0 76.60)" data-layer="figure"><g data-layer="body"><path d="M 0.00 -70.00 C 5.01 -70.00, 10.11 -69.54, 15.02 -68.66 C 19.93 -67.77, 24.84 -66.41, 29.47 -64.67 C 34.09 -62.93, 38.62 -60.73, 42.78 -58.20 C 46.94 -55.67, 50.91 -52.72, 54.45 -49.50 C 57.99 -46.28, 61.24 -42.67, 64.02 -38.89 C 66.81 -35.10, 69.22 -30.99, 71.14 -26.79 C 73.06 -22.58, 74.54 -18.12, 75.52 -13.66 C 76.50 -9.19, 77.00 -3.69, 77.00 0.00 C 77.00 3.69, 76.50 5.70, 75.52 8.47 C 74.54 11.24, 73.06 14.00, 71.14 16.61 C 69.22 19.22, 66.81 21.76, 64.02 24.11 C 61.24 26.46, 57.99 28.69, 54.45 30.69 C 50.91 32.68, 46.94 34.52, 42.78 36.09 C 38.62 37.65, 34.09 39.02, 29.47 40.10 C 24.84 41.18, 19.93 42.02, 15.02 42.57 C 10.11 43.12, 5.01 43.40, 0.00 43.40 C -5.01 43.40, -10.11 43.12, -15.02 42.57 C -19.93 42.02, -24.84 41.18, -29.47 40.10 C -34.09 39.02, -38.62 37.65, -42.78 36.09 C -46.94 34.52, -50.91 32.68, -54.45 30.69 C -57.99 28.69, -61.24 26.46, -64.02 24.11 C -66.81 21.76, -69.22 19.22, -71.14 16.61 C -73.06 14.00, -74.54 11.24, -75.52 8.47 C -76.50 5.70, -77.00 3.69, -77.00 0.00 C -77.00 -3.69, -76.50 -9.19, -75.52 -13.66 C -74.54 -18.12, -73.06 -22.58, -71.14 -26.79 C -69.22 -30.99, -66.81 -35.10, -64.02 -38.89 C -61.24 -42.67, -57.99 -46.28, -54.45 -49.50 C -50.91 -52.72, -46.94 -55.67, -42.78 -58.20 C -38.62 -60.73, -34.09 -62.93, -29.47 -64.67 C -24.84 -66.41, -19.93 -67.77, -15.02 -68.66 C -10.11 -69.54, -5.01 -70.00, 0.00 -70.00 Z" fill="url(#g-blue-balloon)" stroke="oklch(59.5% 55% 200)" stroke-width="8"></path></g><g data-layer="eyes"><circle cx="-18.88" cy="-22.37" r="9.10" fill="#fff" stroke="#2a2a2a" stroke-width="2.1"></circle><circle cx="-18.88" cy="-22.37" r="2.80" fill="#1a1a1a"></circle><circle cx="18.88" cy="-22.37" r="9.10" fill="#fff" stroke="#2a2a2a" stroke-width="2.1"></circle><circle cx="18.88" cy="-22.37" r="2.80" fill="#1a1a1a"></circle></g></g></svg>
