<?xml version="1.0" encoding="UTF-8"?>
<svg xmlns="http://www.w3.org/2000/svg" viewBox="-170 -170 340 340"><g transform="translate(0 83.82)" data-layer="figure"><g data-layer="body"><path d="M 0.00 -73.19 C 6.09 -74.89, 13.64 -75.09, 19.62 -73.32 C 25.61 -71.55, 31.66 -67.11, 35.92 -62.56 C 40.19 -58.01, 42.90 -51.38, 45.21 -46.03 C 47.52 -40.68, 47.98 -34.96, 49.79 -30.46 C 51.59 -25.96, 52.93 -21.75, 56.05 -19.04 C 59.16 -16.33, 63.66 -15.95, 68.48 -14.18 C 73.30 -12.42, 80.11 -10.81, 84.96 -8.45 C 89.82 -6.09, 95.31 -2.61, 97.59 -0.00 C 99.87 2.61, 100.47 5.00, 98.66 7.20 C 96.85 9.39, 91.90 11.61, 86.73 13.17 C 81.56 14.74, 73.82 15.73, 67.66 16.58 C 61.50 17.42, 54.82 17.59, 49.79 18.25 C 44.75 18.92, 41.02 19.41, 37.45 20.55 C 33.88 21.69, 31.79 23.34, 28.37 25.11 C 24.94 26.88, 21.63 29.37, 16.90 31.15 C 12.17 32.93, 6.09 34.95, 0.00 35.78 C -6.09 36.62, -13.64 36.84, -19.62 36.18 C -25.61 35.51, -31.66 33.70, -35.92 31.80 C -40.19 29.91, -42.90 27.07, -45.21 24.81 C -47.52 22.55, -47.98 20.10, -49.79 18.25 C -51.59 16.41, -52.93 15.04, -56.05 13.73 C -59.16 12.42, -63.66 11.66, -68.48 10.40 C -73.30 9.15, -80.11 7.93, -84.96 6.20 C -89.82 4.46, -95.31 2.67, -97.59 0.00 C -99.87 -2.67, -100.47 -6.82, -98.66 -9.81 C -96.85 -12.81, -91.90 -15.77, -86.73 -17.96 C -81.56 -20.16, -73.82 -20.90, -67.66 -22.98 C -61.50 -25.07, -54.82 -27.94, -49.79 -30.46 C -44.75 -32.98, -41.02 -34.97, -37.45 -38.13 C -33.88 -41.29, -31.79 -45.23, -28.37 -49.40 C -24.94 -53.57, -21.63 -59.17, -16.90 -63.14 C -12.17 -67.11, -6.09 -71.50, 0.00 -73.19 Z" fill="oklch(50% 90% 200)" stroke="oklch(42.5% 90% 200)" stroke-width="8"></path></g><g data-layer="eyes"><circle cx="-14.89" cy="-27.33" r="14.70" fill="#fff" stroke="#2a2a2a" stroke-width="1.5"></circle><circle cx="-14.89" cy="-25.57" r="9.45" fill="#1a1a1a"></circle><circle cx="-18.20" cy="-29.35" r="3.85" fill="#fff"></circle><circle cx="-11.11" cy="-22.26" r="1.96" fill="#fff"></circle><circle cx="14.89" cy="-27.33" r="14.70" fill="#fff" stroke="#2a2a2a" stroke-width="1.5"></circle><circle cx="14.89" cy="-25.57" r="9.45" fill="#1a1a1a"></circle><circle cx="11.58" cy="-29.35" r="3.85" fill="#fff"></circle><circle cx="18.67" cy="-22.26" r="1.96" fill="#fff"></circle></g></g></svg>
