<?xml version="1.0" encoding="UTF-8"?>
<svg xmlns="http://www.w3.org/2000/svg" viewBox="-170 -170 340 340"><g transform="translate(0 71.00)" data-layer="figure"><g data-layer="body"><path d="M 0.00 -64.40 C 4.64 -64.40, 9.10 -64.42, 13.92 -64.40 C 18.74 -64.37, 23.64 -64.51, 28.92 -64.24 C 34.21 -63.98, 40.28 -64.17, 45.62 -62.81 C 50.95 -61.45, 57.16 -59.54, 60.94 -56.06 C 64.71 -52.59, 66.79 -46.88, 68.27 -41.97 C 69.75 -37.06, 69.54 -31.47, 69.83 -26.61 C 70.12 -21.75, 69.97 -17.24, 70.00 -12.81 C 70.02 -8.37, 70.00 -3.76, 70.00 0.00 C 70.00 3.76, 70.02 6.37, 70.00 9.75 C 69.97 13.12, 70.12 16.55, 69.83 20.25 C 69.54 23.95, 69.75 28.20, 68.27 31.93 C 66.79 35.67, 64.71 40.01, 60.94 42.66 C 57.16 45.30, 50.95 46.75, 45.62 47.79 C 40.28 48.83, 34.21 48.68, 28.92 48.88 C 23.64 49.08, 18.74 48.98, 13.92 49.00 C 9.10 49.02, 4.64 49.00, 0.00 49.00 C -4.64 49.00, -9.10 49.02, -13.92 49.00 C -18.74 48.98, -23.64 49.08, -28.92 48.88 C -34.21 48.68, -40.28 48.83, -45.62 47.79 C -50.95 46.75, -57.16 45.30, -60.94 42.66 C -64.71 40.01, -66.79 35.67, -68.27 31.93 C -69.75 28.20, -69.54 23.95, -69.83 20.25 C -70.12 16.55, -69.97 13.12, -70.00 9.75 C -70.02 6.37, -70.00 3.76, -70.00 0.00 C -70.00 -3.76, -70.02 -8.37, -70.00 -12.81 C -69.97 -17.24, -70.12 -21.75, -69.83 -26.61 C -69.54 -31.47, -69.75 -37.06, -68.27 -41.97 C -66.79 -46.88, -64.71 -52.59, -60.94 -56.06 C -57.16 -59.54, -50.95 -61.45, -45.62 -62.81 C -40.28 -64.17, -34.21 -63.98, -28.92 -64.24 C -23.64 -64.51, -18.74 -64.37, -13.92 -64.40 C -9.10 -64.42, -4.64 -64.40, 0.00 -64.40 Z" fill="oklch(60% 90% 120)" stroke="oklch(51.0% 90% 120)" stroke-width="8"></path></g><g data-layer="eyes"><circle cx="-18.19" cy="-16.77" r="11.90" fill="#fff" stroke="#2a2a2a" stroke-width="1.5"></circle><circle cx="-18.19" cy="-14.99" r="7.00" fill="#1a1a1a"></circle><circle cx="-20.29" cy="-17.44" r="2.80" fill="#fff"></circle><circle cx="18.19" cy="-16.77" r="11.90" fill="#fff" stroke="#2a2a2a" stroke-width="1.5"></circle><circle cx="18.19" cy="-14.99" r="7.00" fill="#1a1a1a"></circle><circle cx="16.09" cy="-17.44" r="2.80" fill="#fff"></circle></g></g></svg>
