<?xml version="1.0" encoding="UTF-8"?>
<svg xmlns="http://www.w3.org/2000/svg" viewBox="-170 -170 340 340"><g transform="translate(0 64.20)" data-layer="figure"><g data-layer="body"><path d="M 0.00 -90.00 C 6.44 -90.00, 13.00 -89.41, 19.31 -88.27 C 25.63 -87.13, 31.94 -85.39, 37.89 -83.15 C 43.83 -80.91, 49.65 -78.08, 55.00 -74.83 C 60.35 -71.58, 65.45 -67.78, 70.00 -63.64 C 74.56 -59.50, 78.74 -54.87, 82.32 -50.00 C 85.89 -45.13, 89.00 -39.85, 91.46 -34.44 C 93.93 -29.03, 95.84 -23.30, 97.10 -17.56 C 98.35 -11.82, 99.00 -4.74, 99.00 0.00 C 99.00 4.74, 98.35 7.33, 97.10 10.89 C 95.84 14.45, 93.93 18.00, 91.46 21.35 C 89.00 24.71, 85.89 27.98, 82.32 31.00 C 78.74 34.02, 74.56 36.89, 70.00 39.46 C 65.45 42.02, 60.35 44.38, 55.00 46.40 C 49.65 48.41, 43.83 50.16, 37.89 51.55 C 31.94 52.94, 25.63 54.02, 19.31 54.73 C 13.00 55.44, 6.44 55.80, 0.00 55.80 C -6.44 55.80, -13.00 55.44, -19.31 54.73 C -25.63 54.02, -31.94 52.94, -37.89 51.55 C -43.83 50.16, -49.65 48.41, -55.00 46.40 C -60.35 44.38, -65.45 42.02, -70.00 39.46 C -74.56 36.89, -78.74 34.02, -82.32 31.00 C -85.89 27.98, -89.00 24.71, -91.46 21.35 C -93.93 18.00, -95.84 14.45, -97.10 10.89 C -98.35 7.33, -99.00 4.74, -99.00 0.00 C -99.00 -4.74, -98.35 -11.82, -97.10 -17.56 C -95.84 -23.30, -93.93 -29.03, -91.46 -34.44 C -89.00 -39.85, -85.89 -45.13, -82.32 -50.00 C -78.74 -54.87, -74.56 -59.50, -70.00 -63.64 C -65.45 -67.78, -60.35 -71.58, -55.00 -74.83 C -49.65 -78.08, -43.83 -80.91, -37.89 -83.15 C -31.94 -85.39, -25.63 -87.13, -19.31 -88.27 C -13.00 -89.41, -6.44 -90.00, 0.00 -90.00 Z" fill="oklch(60% 90% 0)" stroke="oklch(51.0% 90% 0)" stroke-width="8"></path></g><g data-layer="eyes"><path d="M -39.57321411642411 -28.763999999999996 Q -24.273214116424114 -40.464 -8.973214116424113 -28.763999999999996" fill="none" stroke="#2a2a2a" stroke-width="4.5" stroke-linecap="round"></path><path d="M 8.973214116424113 -28.763999999999996 Q 24.273214116424114 -40.464 39.57321411642411 -28.763999999999996" fill="none" stroke="#2a2a2a" stroke-width="4.5" stroke-linecap="round"></path></g></g></svg>
