<?xml version="1.0" encoding="UTF-8"?>
<svg xmlns="http://www.w3.org/2000/svg" viewBox="-170 -170 340 340"><g transform="translate(0 69.60)" data-layer="figure"><g data-layer="body"><path d="M 0.00 -59.63 C 4.60 -60.98, 10.44 -61.06, 14.81 -59.56 C 19.18 -58.05, 23.22 -54.01, 26.20 -50.60 C 29.18 -47.20, 30.50 -42.33, 32.68 -39.13 C 34.87 -35.94, 36.21 -33.40, 39.29 -31.44 C 42.38 -29.47, 46.74 -28.96, 51.20 -27.37 C 55.66 -25.78, 62.09 -24.46, 66.07 -21.89 C 70.05 -19.32, 74.06 -15.60, 75.08 -11.95 C 76.10 -8.30, 74.53 -3.47, 72.21 0.00 C 69.88 3.47, 64.60 6.26, 61.15 8.85 C 57.69 11.43, 53.61 13.06, 51.49 15.51 C 49.37 17.96, 49.04 20.32, 48.43 23.53 C 47.82 26.75, 48.91 31.09, 47.84 34.79 C 46.77 38.49, 45.18 43.11, 42.00 45.71 C 38.81 48.31, 33.54 50.12, 28.70 50.40 C 23.86 50.67, 17.74 48.81, 12.96 47.37 C 8.17 45.94, 3.98 43.01, 0.00 41.79 C -3.98 40.56, -6.89 39.86, -10.94 40.01 C -15.00 40.16, -19.36 41.98, -24.31 42.69 C -29.26 43.40, -35.69 44.81, -40.65 44.25 C -45.61 43.68, -51.06 41.94, -54.04 39.30 C -57.03 36.67, -58.25 32.20, -58.55 28.45 C -58.86 24.71, -56.57 20.26, -55.88 16.83 C -55.18 13.40, -53.73 10.67, -54.38 7.87 C -55.04 5.06, -57.47 3.12, -59.79 0.00 C -62.12 -3.12, -66.54 -6.98, -68.32 -10.87 C -70.09 -14.76, -71.63 -19.70, -70.46 -23.35 C -69.30 -27.00, -65.49 -30.61, -61.32 -32.78 C -57.16 -34.96, -50.50 -35.61, -45.50 -36.40 C -40.50 -37.19, -35.29 -36.57, -31.34 -37.52 C -27.39 -38.48, -24.90 -39.80, -21.81 -42.13 C -18.72 -44.45, -16.43 -48.54, -12.79 -51.46 C -9.16 -54.38, -4.60 -58.28, 0.00 -59.63 Z" fill="oklch(60% 35% 200)" stroke="oklch(51.0% 35% 200)" stroke-width="8"></path></g><g data-layer="eyes"><circle cx="-19.17" cy="-13.42" r="12.60" fill="#fff" stroke="#2a2a2a" stroke-width="1.5"></circle><circle cx="-19.17" cy="-11.91" r="8.10" fill="#1a1a1a"></circle><circle cx="-22.01" cy="-15.15" r="3.30" fill="#fff"></circle><circle cx="-15.93" cy="-9.07" r="1.68" fill="#fff"></circle><circle cx="19.17" cy="-13.42" r="12.60" fill="#fff" stroke="#2a2a2a" stroke-width="1.5"></circle><circle cx="19.17" cy="-11.91" r="8.10" fill="#1a1a1a"></circle><circle cx="16.34" cy="-15.15" r="3.30" fill="#fff"></circle><circle cx="22.41" cy="-9.07" r="1.68" fill="#fff"></circle></g></g></svg>
