<?xml version="1.0" encoding="UTF-8"?>
<svg xmlns="http://www.w3.org/2000/svg" viewBox="-170 -170 340 340"><g transform="translate(0 108.00)" data-layer="figure"><g data-layer="body"><path d="M 0.00 -36.00 C 8.58 -36.00, 17.33 -35.76, 25.75 -35.31 C 34.17 -34.85, 42.58 -34.16, 50.51 -33.26 C 58.44 -32.36, 66.20 -31.23, 73.34 -29.93 C 80.47 -28.63, 87.27 -27.11, 93.34 -25.46 C 99.41 -23.80, 104.98 -21.95, 109.75 -20.00 C 114.52 -18.05, 118.67 -15.94, 121.95 -13.78 C 125.24 -11.61, 127.79 -9.32, 129.46 -7.02 C 131.14 -4.73, 132.00 -1.56, 132.00 0.00 C 132.00 1.56, 131.14 1.58, 129.46 2.34 C 127.79 3.11, 125.24 3.87, 121.95 4.59 C 118.67 5.31, 114.52 6.02, 109.75 6.67 C 104.98 7.32, 99.41 7.93, 93.34 8.49 C 87.27 9.04, 80.47 9.54, 73.34 9.98 C 66.20 10.41, 58.44 10.79, 50.51 11.09 C 42.58 11.39, 34.17 11.62, 25.75 11.77 C 17.33 11.92, 8.58 12.00, 0.00 12.00 C -8.58 12.00, -17.33 11.92, -25.75 11.77 C -34.17 11.62, -42.58 11.39, -50.51 11.09 C -58.44 10.79, -66.20 10.41, -73.34 9.98 C -80.47 9.54, -87.27 9.04, -93.34 8.49 C -99.41 7.93, -104.98 7.32, -109.75 6.67 C -114.52 6.02, -118.67 5.31, -121.95 4.59 C -125.24 3.87, -127.79 3.11, -129.46 2.34 C -131.14 1.58, -132.00 1.56, -132.00 0.00 C -132.00 -1.56, -131.14 -4.73, -129.46 -7.02 C -127.79 -9.32, -125.24 -11.61, -121.95 -13.78 C -118.67 -15.94, -114.52 -18.05, -109.75 -20.00 C -104.98 -21.95, -99.41 -23.80, -93.34 -25.46 C -87.27 -27.11, -80.47 -28.63, -73.34 -29.93 C -66.20 -31.23, -58.44 -32.36, -50.51 -33.26 C -42.58 -34.16, -34.17 -34.85, -25.75 -35.31 C -17.33 -35.76, -8.58 -36.00, 0.00 -36.00 Z" fill="oklch(70% 90% 0)" stroke="oklch(59.5% 90% 0)" stroke-width="8"></path></g><g data-layer="eyes"><circle cx="-30.66" cy="-15.84" r="13.60" fill="#fff" stroke="#2a2a2a" stroke-width="1.5"></circle><circle cx="-30.66" cy="-13.80" r="8.00" fill="#1a1a1a"></circle><circle cx="-33.06" cy="-16.60" r="3.20" fill="#fff"></circle><circle cx="30.66" cy="-15.84" r="13.60" fill="#fff" stroke="#2a2a2a" stroke-width="1.5"></circle><circle cx="30.66" cy="-13.80" r="8.00" fill="#1a1a1a"></circle><circle cx="28.26" cy="-16.60" r="3.20" fill="#fff"></circle></g></g></svg>
